# xmcd CD database file
#
# Track frame offsets:
#	150
#	19950
#	39210
#	56492
#	73254
#	88950
#	104100
#	128400
#	140132
#	153300
#	167362
#
# Disc length: 2483 seconds
#
# Revision: 0
# Processed by: cddbd v1.5.2PL0 Copyright (c) Steve Scherf et al.
# Submitted via: CDex 1.51
#
DISCID=9609b10b
DTITLE=Full Tonne Kidd - Candy Apple
DYEAR=2013
DGENRE=Country
TTITLE0=A Stranger
TTITLE1=Catch Me If You Can
TTITLE2=Candy Apple
TTITLE3=Winter
TTITLE4=Show Me The Money
TTITLE5=Night And Day
TTITLE6=Tell My Woman
TTITLE7=Every Muscle
TTITLE8=Outside Looking In
TTITLE9=Manic
TTITLE10=Rock Bottom
EXTD=YEAR: 2013
EXTT0=
EXTT1=
EXTT2=
EXTT3=
EXTT4=
EXTT5=
EXTT6=
EXTT7=
EXTT8=
EXTT9=
EXTT10=
PLAYORDER=
